<svg xmlns="http://www.w3.org/2000/svg" viewBox="0 0 280 60" fill="none">
  <!-- Icon - scala a 44x44 centrata verticalmente -->
  <g transform="translate(0, 8) scale(0.44)">
    <!-- White upper -->
    <path d="M50 10 C68 10 80 22 80 38 C80 38 70 28 50 28 C34 28 22 38 22 50 L10 50 C10 28 28 10 50 10Z" fill="white"/>
    <!-- Blue lower -->
    <path d="M50 72 C32 72 20 60 20 60 L28 60 C32 66 40 72 50 72 C66 72 78 62 78 50 L90 50 C90 72 72 90 50 90 C32 90 18 80 12 66 L10 50 L22 50 C22 62 34 72 50 72Z" fill="#4F6EF7"/>
  </g>
  <!-- Text: Split -->
  <text x="52" y="40" font-family="Inter, system-ui, sans-serif" font-weight="900" font-size="30" fill="white" letter-spacing="-1">Split</text>
  <!-- Text: Vote -->
  <text x="149" y="40" font-family="Inter, system-ui, sans-serif" font-weight="900" font-size="30" fill="#4F6EF7" letter-spacing="-1">Vote</text>
</svg>
